<?xml version="1.0" encoding="UTF-8" standalone="no"?>
<!DOCTYPE svg PUBLIC "-//W3C//DTD SVG 1.1//EN" "http://www.w3.org/Graphics/SVG/1.1/DTD/svg11.dtd">
<svg width="100%" height="100%" viewBox="0 0 1371 684" version="1.1" xmlns="http://www.w3.org/2000/svg" xmlns:xlink="http://www.w3.org/1999/xlink" xml:space="preserve" xmlns:serif="http://www.serif.com/" style="fill-rule:evenodd;clip-rule:evenodd;stroke-linejoin:round;stroke-miterlimit:1.41421;">
    <g transform="matrix(4.16667,0,0,4.16667,0,0)">
        <path d="M60,134C60,150.568 46.568,164 30,164C13.431,164 0,150.568 0,134C0,117.432 13.431,104 30,104C46.568,104 60,117.432 60,134Z" style="fill:rgb(164,173,160);fill-rule:nonzero;"/>
        <path d="M30,30C41.102,30 50.788,36.036 55.976,45C58.53,40.587 60,35.467 60,30C60,13.432 46.568,0 30,0C13.431,0 0,13.432 0,30C0,35.467 1.469,40.587 4.023,45C9.211,36.036 18.897,30 30,30Z" style="fill:rgb(116,192,70);fill-rule:nonzero;"/>
        <path d="M30,60C18.897,60 9.211,53.965 4.023,45C1.469,49.414 0,54.534 0,60C0,76.569 13.431,90 30,90C46.568,90 60,76.569 60,60C60,54.534 58.53,49.414 55.976,45C50.788,53.965 41.102,60 30,60Z" style="fill:rgb(218,222,49);fill-rule:nonzero;"/>
        <path d="M30,60C41.102,60 50.788,53.965 55.976,45C50.788,36.036 41.102,30 30,30C18.897,30 9.211,36.036 4.023,45C9.211,53.965 18.897,60 30,60Z" style="fill:rgb(89,178,71);fill-rule:nonzero;"/>
        <path d="M100,118.674L112.479,118.674L112.479,159.996L100,159.996L100,118.674ZM98.43,105.285C98.43,100.988 101.984,97.518 106.199,97.518C110.579,97.518 114.05,100.988 114.05,105.285C114.05,109.583 110.579,113.054 106.199,113.054C101.984,113.054 98.43,109.583 98.43,105.285Z" style="fill:rgb(86,90,91);fill-rule:nonzero;"/>
        <path d="M121.239,118.674L133.718,118.674L133.718,122.888C135.702,120.079 139.834,117.765 145.206,117.765C155.372,117.765 161.239,125.286 161.239,136.111L161.239,159.996L148.76,159.996L148.76,138.261C148.76,132.558 146.528,129.088 142.065,129.088C137.355,129.088 133.718,132.476 133.718,139.914L133.718,159.996L121.239,159.996L121.239,118.674Z" style="fill:rgb(86,90,91);fill-rule:nonzero;"/>
        <path d="M162.311,118.674L176.113,118.674L186.196,143.715L196.196,118.674L210.081,118.674L191.981,159.996L180.41,159.996L162.311,118.674Z" style="fill:rgb(86,90,91);fill-rule:nonzero;"/>
        <path d="M221.813,134.294L239.499,134.294C238.177,129.336 234.127,127.682 230.904,127.682C225.946,127.682 222.888,130.493 221.813,134.294ZM209.334,139.252C209.334,126.855 218.756,117.765 231.235,117.765C243.136,117.765 253.797,125.864 253.302,142.228L221.483,142.228C222.061,146.442 225.202,150.162 231.896,150.162C235.532,150.162 238.838,148.509 239.831,146.277L252.888,146.277C250.244,154.872 241.648,160.905 231.235,160.905C218.425,160.905 209.334,151.814 209.334,139.252Z" style="fill:rgb(86,90,91);fill-rule:nonzero;"/>
        <path d="M257.018,146.525L270.158,146.525C270.324,149.831 273.134,151.484 276.687,151.484C279.911,151.484 281.315,150.327 281.315,148.84C281.315,147.021 279.828,146.195 276.605,145.368L268.258,143.219C261.068,141.4 257.845,136.359 257.845,130.244C257.845,123.054 264.209,117.765 275.117,117.765C284.208,117.765 291.646,122.393 292.226,131.153L279.663,131.153C279.167,128.095 277.019,127.351 274.869,127.351C272.308,127.351 270.654,128.343 270.654,129.996C270.654,132.145 272.969,132.724 274.869,133.22L282.39,135.203C290.737,137.434 294.043,141.648 294.043,148.178C294.043,155.864 286.688,160.905 276.274,160.905C265.035,160.905 257.431,154.624 257.018,146.525Z" style="fill:rgb(86,90,91);fill-rule:nonzero;"/>
        <path d="M304.538,144.872L304.538,129.5L296.272,129.5L296.272,118.674L304.538,118.674L304.538,107.186L317.017,107.186L317.017,118.674L328.992,118.674L328.992,129.5L317.017,129.5L317.017,142.311C317.017,147.27 319.083,149.335 324.041,149.335C325.942,149.335 327.265,149.088 328.587,148.592L328.587,159.666C326.77,160.161 324.455,160.492 321.148,160.492C311.976,160.492 304.538,155.368 304.538,144.872Z" style="fill:rgb(86,90,91);fill-rule:nonzero;"/>
        <path d="M100,46.67L112.479,46.67L112.479,87.993L100,87.993L100,46.67ZM98.43,33.281C98.43,28.984 101.984,25.513 106.199,25.513C110.579,25.513 114.05,28.984 114.05,33.281C114.05,37.579 110.579,41.05 106.199,41.05C101.984,41.05 98.43,37.579 98.43,33.281Z" style="fill:rgb(86,90,91);fill-rule:nonzero;"/>
        <path d="M121.239,46.67L133.718,46.67L133.718,50.884C135.702,48.075 139.834,45.761 145.206,45.761C155.372,45.761 161.239,53.282 161.239,64.108L161.239,87.993L148.76,87.993L148.76,66.257C148.76,60.554 146.528,57.083 142.065,57.083C137.355,57.083 133.718,60.472 133.718,67.91L133.718,87.993L121.239,87.993L121.239,46.67Z" style="fill:rgb(86,90,91);fill-rule:nonzero;"/>
        <path d="M198.592,67.332C198.592,61.381 194.79,57.083 189.17,57.083C183.551,57.083 179.749,61.381 179.749,67.332C179.749,73.282 183.551,77.579 189.17,77.579C194.79,77.579 198.592,73.282 198.592,67.332ZM167.187,67.332C167.187,55.595 175.534,45.761 186.361,45.761C191.898,45.761 195.947,48.571 197.601,50.802L197.601,46.67L210.08,46.67L210.08,87.993L197.601,87.993L197.601,83.86C195.947,86.092 191.898,88.901 186.361,88.901C175.534,88.901 167.187,79.067 167.187,67.332Z" style="fill:rgb(86,90,91);fill-rule:nonzero;"/>
    </g>
</svg>
