<svg width="212" height="32" viewBox="0 0 212 32" fill="none" xmlns="http://www.w3.org/2000/svg">
<path d="M18.515 0L33.1468 31.8278H25.323L21.4152 23.3158H9.29028L5.19404 31.8278H0L15.2053 0H18.515ZM10.7403 20.4239H20.1289L15.5084 10.3471L10.7485 20.4239H10.7403Z" fill="#EE4796"/>
<path d="M37.5156 0.646484H44.9708L55.7603 21.9469L66.3778 0.646484H73.6691V31.8271H66.0337V11.5015L55.8422 31.8353H52.9011L42.3656 11.2721V31.8353H37.5156V0.646484Z" fill="#EE4796"/>
<path d="M81.516 0.646484H92.3956C94.1406 0.646484 95.7791 0.826719 97.3029 1.19538C98.8267 1.56404 100.154 2.11294 101.284 2.85026C102.415 3.58759 103.3 4.50515 103.939 5.60294C104.586 6.70073 104.906 7.97057 104.906 9.42883C104.906 10.8871 104.586 12.1897 103.947 13.2793C103.308 14.3771 102.464 15.2947 101.416 16.032C100.367 16.7693 99.1708 17.3182 97.8273 17.6787C96.4837 18.0391 95.1073 18.2194 93.6982 18.2194H89.1924V31.8353H81.5078V0.646484H81.516ZM89.2006 15.3848H91.7075C92.5841 15.3848 93.3378 15.2291 93.985 14.9178C94.6322 14.6065 95.1647 14.1723 95.5907 13.6316C96.0167 13.0909 96.3444 12.4601 96.5574 11.7555C96.7704 11.0509 96.8769 10.3054 96.8769 9.52714C96.8769 8.5932 96.7376 7.76576 96.4509 7.04482C96.1642 6.32388 95.7873 5.71763 95.304 5.21789C94.8206 4.71815 94.2553 4.3413 93.5999 4.07914C92.9445 3.81698 92.2482 3.6859 91.4945 3.6859H89.1924V15.393L89.2006 15.3848Z" fill="#EE4796"/>
<path d="M111.277 0.646484H118.937V28.632H134.855V31.8271H111.277V0.646484Z" fill="#EE4796"/>
<path d="M139.773 0.646484H147.409V31.8271H139.773V0.646484Z" fill="#EE4796"/>
<path d="M177.625 0.646484V3.31724H162.879V13.5988H175.872V16.2696H162.879V31.8435H155.219V0.646484H177.617H177.625Z" fill="#EE4796"/>
<path d="M186.83 0.646484L197.087 14.6966L206.73 0.646484H211.907L199.717 18.3586V31.8353H192.057V18.8174L178.826 0.646484H186.83Z" fill="#EE4796"/>
</svg>
